<svg width="24" height="24" viewBox="0 0 24 24" fill="none" xmlns="http://www.w3.org/2000/svg">
<path d="M18.5 24H5.49998C2.4638 23.9967 0.00332812 21.5362 0 18.5V5.49998C0.00332812 2.4638 2.4638 0.00332812 5.49998 0H18.5C21.5362 0.00332812 23.9967 2.4638 24 5.49998V18.5C23.9967 21.5362 21.5362 23.9967 18.5 24ZM5.49998 3C4.11928 3 3 4.11928 3 5.49998V18.5C3 19.8807 4.11928 21 5.49998 21H18.5C19.8807 21 21 19.8807 21 18.5V5.49998C21 4.11928 19.8807 3 18.5 3H5.49998Z" fill="white"/>
<path d="M9.66724 17.7872C9.03621 17.7876 8.43124 17.5355 7.98724 17.0872L5.00022 14.1052C4.41424 13.5196 4.41396 12.5698 4.99957 11.9839C4.9998 11.9836 5.00004 11.9834 5.00022 11.9831C5.58597 11.3976 6.53547 11.3976 7.12122 11.9831L9.66724 14.5281L16.8792 7.31613C17.465 6.73056 18.4145 6.73056 19.0002 7.31613C19.5862 7.90174 19.5865 8.85147 19.0009 9.43746C19.0007 9.43769 19.0004 9.43792 19.0002 9.43811L11.3463 17.0922C10.9018 17.5386 10.2972 17.7889 9.66724 17.7872Z" fill="white"/>
</svg>
