<svg width="18" height="18" viewBox="0 0 18 18" fill="none" xmlns="http://www.w3.org/2000/svg">
<path fill-rule="evenodd" clip-rule="evenodd" d="M0 9C0 5.25027 0 3.3754 0.954915 2.06107C1.26331 1.6366 1.6366 1.26331 2.06107 0.954915C3.3754 0 5.25027 0 9 0C12.7497 0 14.6246 0 15.9389 0.954915C16.3634 1.26331 16.7367 1.6366 17.0451 2.06107C18 3.3754 18 5.25027 18 9C18 12.7497 18 14.6246 17.0451 15.9389C16.7367 16.3634 16.3634 16.7367 15.9389 17.0451C14.6246 18 12.7497 18 9 18C8.16106 18 7.41596 18 6.75 17.9893L6.75 17.9192C6.75007 17.0672 6.75011 16.5482 6.67921 16.1005C6.28952 13.6401 4.35988 11.7105 1.8995 11.3208C1.45182 11.2499 0.932836 11.2499 0.0808201 11.25L0.0106945 11.25C0 10.584 0 9.83894 0 9ZM5 5.75L8 5.75C8.41421 5.75 8.75 5.41421 8.75 5C8.75 4.58579 8.41421 4.25 8 4.25L5 4.25C4.58579 4.25 4.25 4.58579 4.25 5C4.25 5.41421 4.58579 5.75 5 5.75ZM4.25 9C4.25 9.41421 4.58579 9.75 5 9.75L13 9.75C13.4142 9.75 13.75 9.41421 13.75 9C13.75 8.58578 13.4142 8.25 13 8.25L5 8.25C4.58579 8.25 4.25 8.58579 4.25 9Z" fill="#B9B9B9"/>
<path d="M5.19768 16.3352C5.24652 16.6435 5.24987 17.0243 5.25 17.9347C3.81037 17.8403 2.83783 17.6094 2.06107 17.0451C1.6366 16.7367 1.26331 16.3634 0.954915 15.9389C0.390566 15.1622 0.159744 14.1896 0.0653364 12.75C0.975676 12.7501 1.35646 12.7535 1.66485 12.8023C3.48339 13.0904 4.90965 14.5166 5.19768 16.3352Z" fill="#B9B9B9"/>
</svg>
