<svg width="18" height="18" viewBox="0 0 18 18" fill="none" xmlns="http://www.w3.org/2000/svg">
<g clip-path="url(#clip0_19_6686)">
<path d="M7.5 12.7499H5.49675C5.20104 12.7508 4.90809 12.693 4.63489 12.5798C4.36168 12.4667 4.11368 12.3004 3.90525 12.0906L0.039 8.22437C0.01725 8.48087 0 8.73812 0 8.99987C0.00329385 11.2553 0.852705 13.4275 2.38031 15.0869C3.90791 16.7463 6.00251 17.7721 8.25 17.9616V13.4999C8.25 13.301 8.17098 13.1102 8.03033 12.9695C7.88968 12.8289 7.69891 12.7499 7.5 12.7499Z" fill="#0074FF"/>
<path d="M15.327 2.60864L13.9845 3.95114C13.6322 4.30146 13.156 4.49873 12.6593 4.50014H11.625C11.5255 4.50014 11.4302 4.53965 11.3598 4.60998C11.2895 4.6803 11.25 4.77569 11.25 4.87514V5.62514C11.25 6.12242 11.0525 6.59934 10.7008 6.95097C10.3492 7.3026 9.87228 7.50014 9.375 7.50014C9.27554 7.50014 9.18016 7.53965 9.10983 7.60998C9.03951 7.6803 9 7.77569 9 7.87514V8.25014C9 8.44906 9.07902 8.63982 9.21967 8.78047C9.36032 8.92113 9.55109 9.00014 9.75 9.00014H12C12.5967 9.00014 13.169 9.2372 13.591 9.65915C14.0129 10.0811 14.25 10.6534 14.25 11.2501V11.9716C14.25 12.0709 14.2894 12.1661 14.3595 12.2364L16.3283 14.2059C17.5694 12.4701 18.1504 10.3485 17.9669 8.22258C17.7833 6.09666 16.8472 4.106 15.327 2.60864Z" fill="#0074FF"/>
<path d="M12.7499 11.9721V11.2506C12.7499 11.0517 12.6709 10.8609 12.5302 10.7203C12.3896 10.5796 12.1988 10.5006 11.9999 10.5006H9.74988C9.15314 10.5006 8.58084 10.2636 8.15889 9.84162C7.73693 9.41966 7.49988 8.84736 7.49988 8.25062V7.87562C7.49988 7.37834 7.69742 6.90143 8.04905 6.5498C8.40068 6.19817 8.8776 6.00062 9.37488 6.00062C9.47433 6.00062 9.56972 5.96112 9.64004 5.89079C9.71037 5.82046 9.74988 5.72508 9.74988 5.62562V4.87562C9.74988 4.37834 9.94742 3.90143 10.2991 3.5498C10.6507 3.19817 11.1276 3.00062 11.6249 3.00062H12.6591C12.7583 3.00004 12.8533 2.96075 12.9239 2.89112L14.1696 1.64537C13.0033 0.821627 11.6574 0.287856 10.2435 0.0883435C8.82968 -0.111169 7.38862 0.0293294 6.03992 0.498182C4.69121 0.967035 3.47375 1.75073 2.48852 2.78424C1.5033 3.81775 0.77871 5.0713 0.374878 6.44087L4.96488 11.0309C5.03468 11.1007 5.11759 11.1561 5.20884 11.1938C5.30009 11.2315 5.39789 11.2508 5.49663 11.2506H7.49988C8.09662 11.2506 8.66891 11.4877 9.09087 11.9096C9.51283 12.3316 9.74988 12.9039 9.74988 13.5006V17.9624C11.8699 17.7879 13.859 16.8658 15.3621 15.3606L13.2989 13.2974C12.9486 12.9451 12.7513 12.4689 12.7499 11.9721Z" fill="#0074FF"/>
</g>
<defs>
<clipPath id="clip0_19_6686">
<rect width="18" height="18" fill="white"/>
</clipPath>
</defs>
</svg>
