<?xml version="1.0" encoding="UTF-8" standalone="no"?><!-- Generator: Gravit.io --><svg xmlns="http://www.w3.org/2000/svg" xmlns:xlink="http://www.w3.org/1999/xlink" style="isolation:isolate" viewBox="544.5 495 36 56.828" width="36pt" height="56.828pt"><defs><clipPath id="_clipPath_A5a1xfNUIvFq9Yn65Il9h7zKTQjXlZxf"><rect x="544.5" y="495" width="36" height="56.828"/></clipPath></defs><g clip-path="url(#_clipPath_A5a1xfNUIvFq9Yn65Il9h7zKTQjXlZxf)"><g><g><path d=" M 554.921 511.101 L 546.638 514.417 C 545.92 514.704 545.448 515.4 545.447 516.174 L 545.447 518.68 L 554.921 514.891 L 554.921 511.101 L 554.921 511.101 Z " fill="rgb(227,129,0)"/><path d=" M 570.079 511.101 L 570.079 514.891 L 579.553 518.68 L 579.553 516.174 C 579.552 515.4 579.08 514.704 578.362 514.417 L 570.079 511.101 Z " fill="rgb(227,129,0)"/></g><path d=" M 569.487 498.096 L 566.232 496.701 C 563.848 495.685 561.152 495.685 558.768 496.701 L 555.513 498.091 C 551.769 499.684 549.468 503.498 549.805 507.553 L 551.132 523.417 L 549.769 539.698 C 549.451 543.548 551.513 547.204 554.974 548.921 L 555.722 549.294 C 559.99 551.419 565.01 551.419 569.279 549.294 L 570.026 548.921 C 573.487 547.204 575.549 543.548 575.231 539.698 L 573.868 523.417 L 575.195 507.549 C 575.528 503.497 573.228 499.688 569.487 498.096 Z " fill="rgb(223,70,70)"/><path d=" M 575.128 508.363 C 569.798 501.333 560.756 498.208 552.222 500.446 C 553.136 499.434 554.259 498.632 555.513 498.096 L 558.768 496.701 C 561.152 495.685 563.848 495.685 566.232 496.701 L 569.487 498.091 C 573.231 499.684 575.532 503.498 575.195 507.552 L 575.128 508.363 Z " fill="rgb(216,24,24)"/><path d=" M 555.164 511.308 L 554.921 511.466 C 554.336 511.854 554.014 512.535 554.084 513.234 L 554.921 521.534 L 570.079 521.534 L 570.913 513.234 C 570.984 512.536 570.663 511.855 570.079 511.466 L 569.84 511.308 C 565.394 508.355 559.61 508.355 555.164 511.308 Z " fill="rgb(35,174,200)"/><path d=" M 555.307 511.221 C 559.736 508.359 565.442 508.393 569.836 511.308 L 570.079 511.466 C 570.664 511.854 570.986 512.535 570.916 513.234 L 570.279 519.581 C 566.643 514.863 561.231 511.841 555.307 511.221 Z " fill="rgb(25,103,163)"/><path d=" M 554.921 534.786 L 570.079 534.786 L 570.807 539.151 C 570.938 539.941 570.559 540.73 569.859 541.119 L 568.022 542.139 C 564.589 544.047 560.413 544.047 556.98 542.139 L 555.143 541.119 C 554.443 540.73 554.064 539.941 554.195 539.151 L 554.921 534.786 Z " fill="rgb(35,174,200)"/><path d=" M 569.858 541.119 L 568.933 541.633 C 565.209 538.349 560.756 536.001 555.942 534.786 L 570.079 534.786 L 570.807 539.151 C 570.938 539.942 570.558 540.729 569.858 541.119 Z " fill="rgb(25,103,163)"/><g><rect x="552.452" y="503.524" width="6.832" height="1.895" transform="matrix(0.555,-0.832,0.832,0.555,-172.213,687.171)" fill="rgb(85,81,96)"/><rect x="568.187" y="501.056" width="1.895" height="6.832" transform="matrix(0.832,-0.555,0.555,0.832,-184.242,400.404)" fill="rgb(85,81,96)"/></g><path d=" M 554.064 522.482 L 570.932 522.482 L 571.85 513.33 C 571.957 512.281 571.473 511.259 570.593 510.677 L 570.355 510.519 C 565.595 507.348 559.395 507.348 554.636 510.519 L 554.396 510.678 C 553.516 511.26 553.033 512.282 553.14 513.331 L 554.064 522.482 Z  M 555.448 512.257 L 555.687 512.098 C 559.813 509.35 565.187 509.35 569.312 512.098 L 569.551 512.256 C 569.843 512.451 570.004 512.791 569.969 513.139 L 569.222 520.587 L 555.774 520.587 L 555.026 513.138 C 554.993 512.79 555.155 512.451 555.448 512.257 Z " fill="rgb(0,0,0)"/><path d=" M 570.881 533.838 L 554.119 533.838 L 553.259 538.995 C 553.062 540.18 553.631 541.362 554.68 541.948 L 556.517 542.968 C 560.233 545.048 564.763 545.048 568.479 542.968 L 570.318 541.948 C 571.366 541.362 571.935 540.181 571.739 538.996 L 570.881 533.838 Z  M 569.398 540.292 L 567.561 541.312 C 564.417 543.071 560.583 543.071 557.439 541.312 L 555.602 540.292 C 555.253 540.096 555.064 539.701 555.129 539.306 L 555.723 535.733 L 569.277 535.733 L 569.872 539.307 C 569.939 539.703 569.748 540.098 569.398 540.292 Z " fill="rgb(0,0,0)"/><rect x="568.187" y="501.056" width="1.895" height="6.832" transform="matrix(0.832,-0.555,0.555,0.832,-184.242,400.404)" fill="rgb(0,0,0)"/><rect x="552.439" y="503.505" width="6.832" height="1.895" transform="matrix(0.555,-0.832,0.832,0.555,-172.253,686.95)" fill="rgb(0,0,0)"/><path d=" M 544.916 519.465 C 545.176 519.641 545.508 519.677 545.8 519.56 L 549.727 517.989 L 550.184 523.417 L 548.828 539.617 C 548.46 543.859 550.733 547.892 554.552 549.773 L 555.3 550.145 C 559.838 552.39 565.162 552.39 569.7 550.145 L 570.447 549.773 C 574.268 547.892 576.543 543.859 576.175 539.617 L 574.816 523.417 L 575.271 517.985 L 579.197 519.556 C 579.682 519.752 580.235 519.518 580.431 519.033 C 580.476 518.921 580.5 518.802 580.5 518.68 L 580.5 516.174 C 580.504 515.01 579.795 513.963 578.713 513.534 L 575.745 512.347 L 576.142 507.631 C 576.515 503.17 573.982 498.973 569.861 497.225 L 566.606 495.836 C 563.984 494.721 561.02 494.721 558.398 495.836 L 555.143 497.225 C 551.02 498.972 548.485 503.169 548.858 507.631 L 549.253 512.347 L 546.285 513.534 C 545.204 513.964 544.496 515.01 544.5 516.174 L 544.5 518.68 C 544.5 518.995 544.656 519.289 544.916 519.465 Z  M 575.763 514.395 L 578.009 515.295 C 578.37 515.437 578.606 515.786 578.605 516.174 L 578.605 517.281 L 575.763 516.144 L 575.763 514.395 Z  M 555.885 498.968 L 559.141 497.579 C 561.287 496.666 563.712 496.666 565.859 497.579 L 569.114 498.968 C 572.482 500.397 574.552 503.828 574.247 507.474 L 572.921 523.417 L 574.286 539.779 C 574.585 543.246 572.727 546.54 569.605 548.076 L 568.857 548.449 C 564.851 550.43 560.149 550.43 556.144 548.449 L 555.397 548.076 C 552.275 546.54 550.416 543.246 550.715 539.779 L 552.079 523.417 L 550.745 507.469 C 550.444 503.823 552.517 500.394 555.885 498.968 Z  M 546.395 516.174 C 546.394 515.786 546.63 515.437 546.991 515.295 L 549.237 514.395 L 549.237 516.144 L 546.395 517.281 L 546.395 516.174 Z " fill="rgb(0,0,0)"/></g></g></svg>